<?xml version="1.0" encoding="UTF-8" standalone="no"?>
<!-- Uploaded to: SVG Repo, www.svgrepo.com, Generator: SVG Repo Mixer Tools -->

<svg
   version="1.1"
   id="Icons"
   viewBox="0 0 48 48"
   xml:space="preserve"
   sodipodi:docname="weather.svg"
   width="48"
   height="48"
   inkscape:version="1.3.1 (91b66b0, 2023-11-16)"
   xmlns:inkscape="http://www.inkscape.org/namespaces/inkscape"
   xmlns:sodipodi="http://sodipodi.sourceforge.net/DTD/sodipodi-0.dtd"
   xmlns="http://www.w3.org/2000/svg"
   xmlns:svg="http://www.w3.org/2000/svg"><defs
   id="defs6" /><sodipodi:namedview
   id="namedview6"
   pagecolor="#ffffff"
   bordercolor="#000000"
   borderopacity="0.25"
   inkscape:showpageshadow="2"
   inkscape:pageopacity="0.0"
   inkscape:pagecheckerboard="0"
   inkscape:deskcolor="#d1d1d1"
   inkscape:zoom="13.250471"
   inkscape:cx="11.47129"
   inkscape:cy="25.546261"
   inkscape:window-width="1728"
   inkscape:window-height="1080"
   inkscape:window-x="0"
   inkscape:window-y="37"
   inkscape:window-maximized="0"
   inkscape:current-layer="Icons" />
<style
   type="text/css"
   id="style1">
	.st0{fill:none;stroke:#000000;stroke-width:2;stroke-linecap:round;stroke-linejoin:round;stroke-miterlimit:10;}
	.st1{fill:none;stroke:#000000;stroke-width:2;stroke-linejoin:round;stroke-miterlimit:10;}
</style>
<path
   class="st0"
   d="m 21.333508,26.707724 v -11.81 c 0,-1.66 -1.34,-3 -3,-3 -1.66,0 -3,1.34 -3,3 v 11.81 c -1.79,1.04 -3,2.97 -3,5.19 0,3.31 2.69,6 6,6 3.31,0 6,-2.69 6,-6 0,-2.22 -1.21,-4.15 -3,-5.19 z"
   id="path1" />
<circle
   class="st0"
   cx="18.333508"
   cy="31.897728"
   r="3"
   id="circle1" />
<line
   class="st0"
   x1="18.333508"
   y1="14.897724"
   x2="18.333508"
   y2="28.897726"
   id="line1" />
<circle
   class="st0"
   cx="29.333508"
   cy="21.897726"
   r="4"
   id="circle2" />
<line
   class="st0"
   x1="29.333508"
   y1="12.897724"
   x2="29.333508"
   y2="14.897724"
   id="line2" />
<line
   class="st0"
   x1="29.333508"
   y1="30.897726"
   x2="29.333508"
   y2="28.897726"
   id="line3" />
<line
   class="st0"
   x1="35.693508"
   y1="28.257727"
   x2="34.283508"
   y2="26.847727"
   id="line4" />
<line
   class="st0"
   x1="38.333508"
   y1="21.897726"
   x2="36.333508"
   y2="21.897726"
   id="line5" />
<line
   class="st0"
   x1="35.693508"
   y1="15.537725"
   x2="34.283508"
   y2="16.947725"
   id="line6" />
</svg>
